<?xml version="1.0" encoding="UTF-8"?>
<svg width="24px" height="24px" viewBox="0 0 24 24" fill="none" xmlns="http://www.w3.org/2000/svg">
  <path d="M18.7299 14.5601C18.6109 14.7027 18.5702 14.8452 18.6109 14.9482C18.6515 15.0511 18.7299 15.1335 18.8489 15.1746C18.9679 15.2158 19.1054 15.1746 19.2431 15.0511C19.3811 14.9276 19.4404 14.7851 19.4004 14.6822C19.3607 14.5793 19.2817 14.4969 19.1627 14.4557C19.0437 14.4146 18.9055 14.4557 18.7299 14.5601Z" fill="#FF9900"/>
  <path d="M16.6162 14.0282C16.4972 14.025 16.3782 14.1474 16.2999 14.3726C16.2215 14.5984 16.2215 14.7847 16.3019 14.8436C16.3809 14.9025 16.4999 14.8025 16.5996 14.5766C16.6976 14.3507 16.7155 14.1645 16.6162 14.0282Z" fill="#FF9900"/>
  <path d="M17.7461 14.7023C17.6458 14.6434 17.5268 14.7434 17.4458 14.9693C17.3654 15.1951 17.3654 15.3814 17.4458 15.4403C17.5268 15.4992 17.6458 15.3992 17.7461 15.1741C17.8271 14.9482 17.8271 14.7619 17.7461 14.7023Z" fill="#FF9900"/>
  <path d="M16.0985 14.1474C16.0201 14.0282 15.9214 13.9694 15.8024 13.9694C15.6834 13.9694 15.5465 14.0694 15.4061 14.2529C15.2671 14.4346 15.1877 14.6434 15.1877 14.8682C15.1877 15.093 15.2478 15.272 15.3667 15.4017C15.4857 15.5327 15.6443 15.5926 15.8423 15.5717C15.9613 15.5717 16.0796 15.5514 16.1967 15.5106C16.315 15.4697 16.4148 15.4198 16.4927 15.3698L16.3921 15.0121C16.265 15.1016 16.1171 15.1532 15.9412 15.1721C15.8414 15.1721 15.7618 15.1532 15.7211 15.1119C15.6811 15.0708 15.6605 14.9887 15.6605 14.865V14.8436H16.517V14.6825C16.5363 14.4779 16.4583 14.2942 16.0985 14.1474ZM15.6631 14.5214C15.6631 14.4215 15.6811 14.335 15.7211 14.2666C15.7618 14.1979 15.8204 14.1607 15.897 14.1607C15.9967 14.1607 16.0694 14.1979 16.1104 14.2666C16.15 14.335 16.1704 14.4215 16.1704 14.5214H15.6631Z" fill="#FF9900"/>
  <path d="M19.7788 15.0929L19.6785 14.7352C19.551 14.8247 19.4037 14.8763 19.2278 14.8953C19.1281 14.8953 19.0485 14.8763 19.0078 14.835C18.9678 14.7938 18.9472 14.7118 18.9472 14.5881V13.7911H19.4214V13.3917H18.9472V12.8706L18.4544 12.9706V13.3917H18.1504V13.7911H18.4544V14.6199C18.4544 14.8441 18.5131 15.0089 18.6291 15.1199C18.7481 15.2294 18.9061 15.2891 19.1041 15.2891C19.2231 15.2891 19.3414 15.2681 19.4585 15.2274C19.5781 15.1865 19.6998 15.1429 19.7788 15.0929Z" fill="#FF9900"/>
  <path d="M14.8451 15.0928L14.7454 14.7351C14.6183 14.8247 14.4704 14.8762 14.2949 14.8951C14.1952 14.8951 14.1155 14.8762 14.0749 14.8349C14.0349 14.7938 14.0146 14.7117 14.0146 14.588V13.7909H14.4888V13.3916H14.0146V12.8704L13.5218 12.9704V13.3916H13.2185V13.7909H13.5218V14.6198C13.5218 14.844 13.5805 15.0088 13.6964 15.1199C13.8154 15.2294 13.9734 15.289 14.1714 15.289C14.2904 15.289 14.4087 15.268 14.5258 15.2273C14.6454 15.1864 14.7464 15.1429 14.8451 15.0928Z" fill="#FF9900"/>
  <path d="M5.48316 13.971C5.05402 13.971 4.73418 14.1134 4.52625 14.3981C4.31831 14.6822 4.21435 15.0515 4.21435 15.5054V15.674C4.21435 16.1279 4.31831 16.4972 4.52625 16.782C4.7342 17.0667 5.05399 17.2098 5.48316 17.2098C5.91233 17.2098 6.23217 17.0681 6.43959 16.7833C6.64753 16.4992 6.75149 16.129 6.75149 15.6751V15.5066C6.75149 15.0527 6.64753 14.6834 6.43959 14.3986C6.23165 14.1145 5.9124 13.971 5.48316 13.971ZM5.8822 16.2867C5.82302 16.4293 5.71906 16.5006 5.5614 16.5006C5.40322 16.5006 5.2893 16.43 5.22012 16.2874C5.1514 16.1447 5.11677 15.9447 5.11677 15.6872V15.4922C5.11677 15.2347 5.15089 15.0347 5.22012 14.892C5.2893 14.7494 5.40322 14.6794 5.56088 14.6794C5.71906 14.6794 5.823 14.7494 5.8822 14.892C5.9514 15.0347 5.986 15.2347 5.986 15.4922V15.6872C5.986 15.9447 5.95136 16.1441 5.8822 16.2867Z" fill="#FF9900"/>
  <path d="M13.1783 14.0282C13.0593 14.0249 12.9403 14.1474 12.862 14.3726C12.7836 14.5984 12.7836 14.7847 12.864 14.8436C12.943 14.9025 13.062 14.8025 13.1617 14.5766C13.2597 14.3507 13.2776 14.1645 13.1783 14.0282Z" fill="#FF9900"/>
  <path d="M14.3076 14.7023C14.2073 14.6434 14.0883 14.7434 14.0073 14.9693C13.9269 15.1951 13.9269 15.3814 14.0073 15.4403C14.0883 15.4992 14.2073 15.3992 14.3076 15.1741C14.3886 14.9481 14.3886 14.7619 14.3076 14.7023Z" fill="#FF9900"/>
  <path d="M12.6599 14.1474C12.5816 14.0282 12.4828 13.9694 12.3638 13.9694C12.2448 13.9694 12.1079 14.0694 11.9675 14.2529C11.8285 14.4346 11.7492 14.6434 11.7492 14.8682C11.7492 15.093 11.8092 15.272 11.9282 15.4017C12.0472 15.5327 12.2058 15.5926 12.4038 15.5717C12.5228 15.5717 12.6411 15.5514 12.7582 15.5106C12.8765 15.4697 12.9762 15.4198 13.0542 15.3698L12.9535 15.0121C12.8264 15.1016 12.6785 15.1532 12.5026 15.1721C12.4029 15.1721 12.3232 15.1532 12.2826 15.1119C12.2426 15.0708 12.222 14.9887 12.222 14.865V14.8436H13.0785V14.6825C13.0977 14.4779 13.0198 14.2942 12.6599 14.1474ZM12.2245 14.5214C12.2245 14.4215 12.2426 14.335 12.2826 14.2666C12.3232 14.1979 12.3819 14.1607 12.4584 14.1607C12.5582 14.1607 12.6308 14.1979 12.6719 14.2666C12.7115 14.335 12.7319 14.4215 12.7319 14.5214H12.2245Z" fill="#FF9900"/>
  <path d="M7.51682 14.0693C7.43777 14.0075 7.32412 13.9766 7.17591 13.9766H6.86594V14.6646H7.14128C7.31865 14.6646 7.43777 14.631 7.50696 14.5645C7.57567 14.498 7.61026 14.3943 7.61026 14.2543C7.61026 14.1592 7.57773 14.0899 7.51682 14.0693Z" fill="#FF9900"/>
  <path d="M11.5702 15.0928L11.4699 14.7351C11.3434 14.8247 11.1955 14.8762 11.02 14.8951C10.9202 14.8951 10.8406 14.8762 10.8 14.8349C10.7599 14.7938 10.7396 14.7117 10.7396 14.588V13.7909H11.2133V13.3916H10.7396V12.8704L10.2469 12.9704V13.3916H9.9435V13.7909H10.2469V14.6198C10.2469 14.844 10.3049 15.0088 10.4209 15.1199C10.5399 15.2294 10.6985 15.289 10.8965 15.289C11.0155 15.289 11.1338 15.268 11.2508 15.2273C11.3705 15.1864 11.4715 15.1429 11.5702 15.0928Z" fill="#FF9900"/>
  <path d="M8.73217 15.9254C8.29266 15.854 7.90318 15.7361 7.56353 15.5722C7.22444 15.4077 6.95033 15.1976 6.74239 14.9425C6.53445 14.6868 6.43049 14.4 6.43049 14.0845C6.43049 13.7683 6.53393 13.4821 6.74187 13.227C6.94981 12.9719 7.24991 12.7669 7.64367 12.6131C8.03687 12.4586 8.49512 12.3824 9.01642 12.3824C9.53773 12.3824 9.99537 12.4586 10.3886 12.6131C10.7823 12.7683 11.0819 12.9725 11.2898 13.227C11.4978 13.4821 11.6017 13.7689 11.6017 14.0845C11.6017 14.4 11.4972 14.6862 11.2898 14.9425C11.0819 15.197 10.7818 15.4071 10.3886 15.5722C9.99537 15.7361 9.53836 15.854 9.01642 15.9254C8.91308 15.9425 8.81912 15.9595 8.7339 15.9766L8.73217 15.9254Z" fill="#FF9900"/>
  <path d="M7.4785 15.284C7.5266 15.3426 7.58023 15.3711 7.63888 15.3711H7.86662V14.7771H7.59077C7.3919 14.7771 7.29246 14.8783 7.29246 15.0784C7.29246 15.1557 7.35386 15.2254 7.4785 15.284Z" fill="#FF9900"/>
  <path d="M9.0171 13.2146C8.29339 13.2146 7.71802 13.5003 7.29239 14.0716V13.2972H6.389V17.0845H7.38187V16.2259C7.39963 16.1949 7.41686 16.1638 7.43463 16.1326C7.76232 16.69 8.27427 16.9675 8.97078 16.9675C9.15862 16.9675 9.33651 16.9454 9.50494 16.9013C9.67285 16.8578 9.84077 16.7913 10.0087 16.7023C10.1272 16.6444 10.2363 16.5752 10.3346 16.4944C10.4336 16.4135 10.5272 16.3212 10.6155 16.2148C10.7037 16.1092 10.7778 15.9931 10.8371 15.8672C10.8964 15.7407 10.9459 15.6012 10.9858 15.4494C11.0258 15.2968 11.0455 15.1361 11.0455 14.9673C11.0455 14.0965 10.7029 13.4629 10.0177 13.0666C9.73329 13.1638 9.39973 13.2146 9.0171 13.2146Z" fill="#FF9900"/>
  <path d="M21.2308 15.6518C21.2308 17.2012 21.1206 18.5624 20.9003 19.7345C20.68 20.9067 20.3316 21.9085 19.8555 22.7412C19.5384 23.306 19.1535 23.7708 18.701 24.135H21.9998C21.601 23.7817 21.2664 23.3349 20.9953 22.7946C20.4803 21.8879 20.0948 20.753 19.8388 19.3912C19.5835 18.0301 19.4552 16.4374 19.4552 14.613C19.4552 12.789 19.5828 11.1963 19.8388 9.8345C20.0942 8.47362 20.4797 7.33874 20.9947 6.43254C21.2658 5.8916 21.6004 5.44413 21.9998 5.09146H18.7C19.1532 5.45563 19.5384 5.92015 19.8555 6.48502C20.3316 7.31774 20.68 8.32008 20.9003 9.49227C21.1206 10.6644 21.2308 12.0249 21.2308 13.5737V15.6518Z" fill="#FF9900"/>
  <path d="M3.45455e-05 15.6518C3.45455e-05 17.2012 0.11025 18.5624 0.33007 19.7345C0.55041 20.9067 0.89885 21.9085 1.37453 22.7412C1.69222 23.306 2.07645 23.7708 2.52906 24.135H-0.750214C-0.351381 23.7817 -0.0167894 23.3349 0.254686 22.7946C0.769726 21.8879 1.15518 20.753 1.41127 19.3912C1.66631 18.0301 1.79436 16.4374 1.79436 14.613C1.79436 12.789 1.66686 11.1963 1.41127 9.8345C1.15518 8.47362 0.769726 7.33874 0.254686 6.43254C-0.0167894 5.8916 -0.351381 5.44413 -0.750214 5.09146H2.54981C2.09668 5.45563 1.71171 5.92015 1.39454 6.48502C0.91834 7.31774 0.5699 8.32008 0.34956 9.49227C0.11974 10.6644 0.00949 12.0249 0.00949 13.5737L3.45455e-05 15.6518Z" fill="#FF9900"/>
</svg>