<?xml version="1.0" encoding="UTF-8"?>
<svg width="24px" height="24px" viewBox="0 0 24 24" fill="none" xmlns="http://www.w3.org/2000/svg">
  <path d="M18.0264 20.1279C14.1334 22.9054 8.38643 22.8861 4.51094 19.5656C0.635443 16.245 -0.772694 10.848 0.357006 6.0824C1.48731 1.31759 4.87233 -1.02248 9.86501 0.274333C14.8583 1.57079 21.18 5.97153 21.1794 13.2405C21.1794 13.731 21.077 14.7166 20.8173 16.1667" stroke="#FF9900" stroke-width="1.5" stroke-linecap="round" stroke-linejoin="round"></path>
  <path d="M23.9998 15.3438C23.9998 15.3438 20.1627 13.1614 18.2745 12.4871C17.5762 12.4871 14.3986 14.5526 13.8001 14.9937M8.40039 8.49999C8.40039 8.78 8.40039 9.44 8.40039 9.72C8.40039 10.5493 9.07107 11.22 9.90039 11.22H11.0004C11.8297 11.22 12.5004 10.5493 12.5004 9.72V9.44L15.0004 11.22V8.99999L12.5004 7.5V7.22C12.5004 6.39 11.8297 5.72 11.0004 5.72H9.90039C9.07107 5.72 8.40039 6.39 8.40039 7.22V7.5" stroke="#FF9900" stroke-width="1.5" stroke-linecap="round" stroke-linejoin="round"></path>
</svg>