<?xml version="1.0" encoding="UTF-8"?>
<svg width="24px" height="24px" viewBox="0 0 24 24" fill="none" xmlns="http://www.w3.org/2000/svg">
  <path d="M21.5801 12.9998C21.5801 12.8298 21.5101 12.6598 21.3801 12.5298L19.4601 10.5998L20.9001 5.76985C20.9701 5.52985 20.9001 5.26985 20.7101 5.09985C20.5201 4.91985 20.2601 4.85985 20.0301 4.92985L15.2001 6.36985L13.2701 4.43985C13.0001 4.16985 12.5901 4.16985 12.3201 4.43985L10.3901 6.36985L5.56011 4.92985C5.32011 4.85985 5.06011 4.91985 4.87011 5.09985C4.69011 5.27985 4.62011 5.52985 4.69011 5.76985L6.13011 10.5998L4.20011 12.5298C3.93011 12.7998 3.93011 13.2098 4.20011 13.4798L6.13011 15.4098L4.69011 20.2398C4.62011 20.4798 4.69011 20.7398 4.88011 20.9198C5.07011 21.0998 5.32011 21.1598 5.56011 21.0898L10.3901 19.6498L12.3201 21.5798C12.4501 21.7098 12.6201 21.7798 12.7901 21.7798C12.9601 21.7798 13.1301 21.7098 13.2601 21.5798L15.1901 19.6498L20.0201 21.0898C20.0801 21.1098 20.1501 21.1198 20.2101 21.1198C20.3901 21.1198 20.5701 21.0498 20.7001 20.9198C20.8901 20.7298 20.9601 20.4798 20.8901 20.2398L19.4501 15.4098L21.3801 13.4798C21.5101 13.3498 21.5801 13.1698 21.5801 12.9998ZM17.9901 14.8198C17.8601 14.9498 17.7901 15.1298 17.7901 15.2998C17.7901 15.3298 17.7901 15.3498 17.8001 15.3798L18.9501 19.1398L15.1901 18.0098C15.0101 17.9498 14.8101 17.9898 14.6501 18.1098C14.6201 18.1398 14.6001 18.1598 14.5701 18.1898L12.7901 19.9798L11.0001 18.1898C10.8701 18.0598 10.7001 17.9898 10.5301 17.9898C10.4701 17.9898 10.4001 17.9998 10.3401 18.0098L6.56011 19.1498L7.68011 15.3898C7.74011 15.1498 7.67011 14.8898 7.47011 14.7098C7.44011 14.6798 7.42011 14.6598 7.39011 14.6298L5.60011 12.8298L7.39011 11.0398C7.67011 10.8498 7.75011 10.5998 7.68011 10.3598L6.55011 6.60985L10.3101 7.74985C10.5501 7.81985 10.8101 7.74985 10.9901 7.54985C11.0201 7.51985 11.0401 7.49985 11.0701 7.46985L12.8601 5.68985L14.6501 7.47985C14.8301 7.65985 15.0801 7.72985 15.3201 7.65985L19.0801 6.52985L17.9501 10.2898C17.8901 10.5298 17.9601 10.7898 18.1601 10.9698C18.1901 10.9998 18.2101 11.0198 18.2401 11.0498L20.0301 12.8198L17.9901 14.8198Z" fill="#3B82F6"/>
  <path d="M12.7898 14.7202C13.4803 14.7202 14.0399 14.1606 14.0399 13.4701C14.0399 12.7796 13.4803 12.2202 12.7898 12.2202C12.0993 12.2202 11.5399 12.7796 11.5399 13.4701C11.5399 14.1606 12.0993 14.7202 12.7898 14.7202Z" fill="#3B82F6"/>
</svg>