<?xml version="1.0" encoding="UTF-8"?>
<svg width="24px" height="24px" viewBox="0 0 24 24" stroke-width="1.5" fill="none" xmlns="http://www.w3.org/2000/svg" color="#000000">
  <path d="M10.5 4.5v4.667a.6.6 0 01-.282.51l-7.436 4.647a.6.6 0 00-.282.508v.9a.6.6 0 00.746.582l6.508-1.628a.6.6 0 01.746.582v2.96a.6.6 0 01-.205.451l-2.16 1.89a.6.6 0 00-.204.451v.532a.6.6 0 00.748.580l3.164-.792a.6.6 0 01.292 0l3.164.791a.6.6 0 00.748-.579v-.532a.6.6 0 00-.205-.45l-2.16-1.89a.6.6 0 01-.204-.452v-2.96a.6.6 0 01.746-.581l6.508 1.628a.6.6 0 00.746-.582v-.9a.6.6 0 00-.282-.508l-7.436-4.648a.6.6 0 01-.282-.509V4.5a1.5 1.5 0 00-3 0z" stroke="#000000" stroke-width="1.5" stroke-linecap="round" stroke-linejoin="round"></path>
</svg>